#!OML:ASF X:\für Bonn\!DataBase\2005_08_11_Bastian_Final\c3d\Bastian.ASF
:FULLY-SPECIFIED
:DEGREES
3037
root 0.297586 17.3321 1.1694 166.437 0.544549 -175.317
lowerback 5.89586 -0.722716 0.834093
upperback 7.01331 -1.71482 1.68331
thorax 3.98379 -1.17622 1.2908
lowerneck -9.39998 -1.12095 -0.309642
upperneck -5.13307 -0.664478 7.5736
head 0.0144322 0.0212789 2.43316
rclavicle -6.09399e-015 -3.77691e-015
rhumerus -367.935 -16.7288 357.769
rradius 39.1628
rwrist -140.426
rhand -32.2973 8.17212
rfingers 7.12502
rthumb -5.53582 -381.736
lclavicle -6.09399e-015 -3.77691e-015
lhumerus -25.4581 41.9405 -15.9415
lradius 22.2525
lwrist 192.82
lhand -13.0959 -0.00684708
lfingers 7.12502
lthumb 13.0007 29.5681
rfemur 4.13706 11.1794 27.113
rtibia 34.2808
rfoot -18.0237 -16.7583
rtoes -7.255
lfemur 9.08422 1.36776 -12.808
ltibia 26.7221
lfoot -17.0635 1.76276
ltoes -19.6117
3038
root 0.297504 17.3319 1.16928 166.433 0.566579 -175.317
lowerback 5.90288 -1.62525 0.726872
upperback 7.03484 -1.49865 1.6011
thorax 3.98992 -0.459558 1.30384
lowerneck -9.41021 -1.12762 -0.290989
upperneck -5.09494 -0.681419 7.55635
head 0.0286866 0.0121833 2.42358
rclavicle -4.97272e-015 -1.28216e-014
rhumerus -367.911 -16.7934 357.783
rradius 39.1335
rwrist -140.374
rhand -32.3281 8.27125
rfingers 7.12502
rthumb -5.56548 -381.636
lclavicle -4.97272e-015 -1.28216e-014
lhumerus -25.3941 41.8696 -15.8599
lradius 22.2578
lwrist 192.805
lhand -13.0951 -0.0136842
lfingers 7.12502
lthumb 13.0015 29.5612
rfemur 4.15011 11.2447 27.1372
rtibia 34.2748
rfoot -18.0215 -16.8023
rtoes -7.24709
lfemur 9.0918 1.36401 -12.8118
ltibia 26.7283
lfoot -17.0755 1.78585
ltoes -19.6091
3039
root 0.296528 17.3313 1.16882 166.416 0.587211 -175.299
lowerback 5.91853 -1.62516 0.743225
upperback 7.03365 -1.49735 1.60352
thorax 3.97948 -0.458033 1.29747
lowerneck -9.40469 -1.13087 -0.271088
upperneck -5.08041 -0.689378 7.5587
head 0.0325568 0.00778353 2.42052
rclavicle -1.92976e-014 1.89839e-014
rhumerus -367.897 -16.8159 357.805
rradius 39.1163
rwrist -140.37
rhand -32.3419 8.34126
rfingers 7.12502
rthumb -5.57883 -381.565
lclavicle -1.92976e-014 1.89839e-014
lhumerus -25.419 42.0359 -15.8991
lradius 22.2966
lwrist 192.553
lhand -13.219 0.00791422
lfingers 7.12502
lthumb 12.882 29.5903
rfemur 4.1706 11.2261 27.1504
rtibia 34.2697
rfoot -18.0183 -16.7707
rtoes -7.25536
lfemur 9.11904 1.30935 -12.8113
ltibia 26.7333
lfoot -17.1035 1.82365
ltoes -19.4281
3040
root 0.295705 17.3315 1.1693 166.419 0.591676 -175.288
lowerback 5.92216 -1.62699 0.756715
upperback 7.03046 -1.49964 1.59875
thorax 3.97358 -0.458642 1.28509
lowerneck -9.41195 -1.13802 -0.251151
upperneck -5.0833 -0.699142 7.56551
head 0.033142 0.00338254 2.41889
rclavicle -1.01753e-014 1.03368e-014
rhumerus -367.897 -16.8499 357.809
rradius 39.0906
rwrist -140.337
rhand -32.3539 8.44228
rfingers 7.12502
rthumb -5.59046 -381.464
lclavicle -1.01753e-014 1.03368e-014
lhumerus -25.3535 41.997 -15.8498
lradius 22.2921
lwrist 192.537
lhand -13.2435 0.0353545
lfingers 7.12502
lthumb 12.8585 29.6193
rfemur 4.16402 11.2211 27.1568
rtibia 34.2677
rfoot -18.011 -16.7638
rtoes -7.24977
lfemur 9.11448 1.2941 -12.8078
ltibia 26.7336
lfoot -17.1056 1.84183
ltoes -19.4324
3041
root 0.294777 17.3314 1.16873 166.422 0.608624 -175.293
lowerback 5.90478 -1.61965 0.754682
upperback 7.03353 -1.49055 1.59686
thorax 3.98636 -0.454267 1.28374
lowerneck -9.44902 -1.1476 -0.263764
upperneck -5.03669 -0.714969 7.59668
head 0.0552482 -0.0024299 2.43129
rclavicle -2.61526e-015 2.16675e-014
rhumerus -367.891 -16.8888 357.844
rradius 39.0733
rwrist -140.318
rhand -32.3871 8.54273
rfingers 7.12502
rthumb -5.62248 -381.363
lclavicle -2.61526e-015 2.16675e-014
lhumerus -25.3471 42.0815 -15.8301
lradius 22.3336
lwrist 192.354
lhand -13.2986 0.0637776
lfingers 7.12502
lthumb 12.8054 29.651
rfemur 4.17034 11.2777 27.1679
rtibia 34.2633
rfoot -18.012 -16.8002
rtoes -7.24474
lfemur 9.11459 1.3382 -12.8011
ltibia 26.7379
lfoot -17.1059 1.81648
ltoes -19.4362
3042
root 0.293849 17.3309 1.16907 166.396 0.61478 -175.311
lowerback 5.93758 -1.61671 0.729691
upperback 7.03058 -1.48623 1.5948
thorax 3.96554 -0.453063 1.29607
lowerneck -9.44289 -1.15157 -0.242653
upperneck -5.03112 -0.724179 7.57654
head 0.056009 -0.00808496 2.42044
rclavicle 2.04997e-014 -3.22031e-014
rhumerus -367.905 -16.8336 357.893
rradius 39.0634
rwrist -140.375
rhand -32.3833 8.67476
rfingers 7.12502
rthumb -5.61879 -381.231
lclavicle 2.04997e-014 -3.22031e-014
lhumerus -25.3009 42.0591 -15.7813
lradius 22.3355
lwrist 192.278
lhand -13.3435 0.105125
lfingers 7.12502
lthumb 12.7621 29.6951
rfemur 4.20081 11.2568 27.1422
rtibia 34.2607
rfoot -18.0162 -16.7693
rtoes -7.24425
lfemur 9.14276 1.32038 -12.8322
ltibia 26.7419
lfoot -17.117 1.84368
ltoes -19.4334
3043
root 0.293587 17.3308 1.1692 166.389 0.630713 -175.286
lowerback 5.95089 -1.61543 0.754557
upperback 7.0237 -1.48392 1.59512
thorax 3.95008 -0.451 1.28267
lowerneck -9.44883 -1.1526 -0.198823
upperneck -5.00098 -0.73432 7.55311
head 0.0663957 -0.014067 2.40442
rclavicle -2.29224e-014 1.13307e-014
rhumerus -367.903 -16.8494 357.914
rradius 39.0446
rwrist -140.339
rhand -32.4119 8.76501
rfingers 7.12502
rthumb -5.64642 -381.14
lclavicle -2.29224e-014 1.13307e-014
lhumerus -25.2631 42.0522 -15.762
lradius 22.3553
lwrist 192.221
lhand -13.3909 0.101553
lfingers 7.12502
lthumb 12.7163 29.6944
rfemur 4.20781 11.26 27.1713
rtibia 34.257
rfoot -18.0052 -16.7857
rtoes -7.26237
lfemur 9.14549 1.30408 -12.8117
ltibia 26.7462
lfoot -17.1205 1.87144
ltoes -19.4553
3044
root 0.293138 17.3307 1.16876 166.391 0.64173 -175.283
lowerback 5.94627 -1.61162 0.747263
upperback 7.01717 -1.4803 1.60022
thorax 3.94608 -0.450143 1.29185
lowerneck -9.43716 -1.16455 -0.210389
upperneck -4.99182 -0.750384 7.57168
head 0.0683047 -0.0221475 2.4122
rclavicle 1.9133e-014 5.06901e-015
rhumerus -367.905 -16.8797 357.943
rradius 39.0373
rwrist -140.3
rhand -32.4729 8.85917
rfingers 7.12502
rthumb -5.70533 -381.044
lclavicle 1.9133e-014 5.06901e-015
lhumerus -25.2609 42.1418 -15.7543
lradius 22.3694
lwrist 192.053
lhand -13.4465 0.145546
lfingers 7.12502
lthumb 12.6628 29.7417
rfemur 4.21328 11.3171 27.1949
rtibia 34.2577
rfoot -18.0092 -16.832
rtoes -7.2655
lfemur 9.14545 1.36633 -12.7851
ltibia 26.7449
lfoot -17.125 1.82027
ltoes -19.4852
3045
root 0.291843 17.3305 1.16884 166.38 0.644148 -175.283
lowerback 5.94943 -1.61533 0.745898
upperback 7.02251 -1.48448 1.59535
thorax 3.94991 -0.451859 1.28773
lowerneck -9.4507 -1.16506 -0.196285
upperneck -4.98225 -0.752384 7.58036
head 0.0736432 -0.0224336 2.41253
rclavicle 6.64686e-015 -5.26779e-015
rhumerus -367.891 -16.8835 357.96
rradius 39.0215
rwrist -140.273
rhand -32.4933 8.9858
rfingers 7.12502
rthumb -5.72497 -380.917
lclavicle 6.64686e-015 -5.26779e-015
lhumerus -25.208 42.012 -15.7045
lradius 22.3744
lwrist 192.128
lhand -13.4239 0.127552
lfingers 7.12502
lthumb 12.6846 29.7223
rfemur 4.22339 11.2904 27.1811
rtibia 34.2545
rfoot -18.0067 -16.8017
rtoes -7.27196
lfemur 9.15757 1.33774 -12.8022
ltibia 26.75
lfoot -17.1374 1.85245
ltoes -19.4821
3046
root 0.291411 17.3298 1.16952 166.37 0.66539 -175.277
lowerback 5.95551 -1.61181 0.736402
upperback 7.03467 -1.47813 1.6052
thorax 3.9598 -0.448405 1.30324
lowerneck -9.49527 -1.16925 -0.188136
upperneck -4.95803 -0.761481 7.57099
head 0.0890543 -0.0256745 2.40782
rclavicle 8.92667e-015 -7.95139e-016
rhumerus -367.882 -16.9285 357.987
rradius 39.0171
rwrist -140.275
rhand -32.5323 9.09771
rfingers 7.12502
rthumb -5.76265 -380.804
lclavicle 8.92667e-015 -7.95139e-016
lhumerus -25.2269 42.1385 -15.7067
lradius 22.3975
lwrist 191.957
lhand -13.4553 0.139322
lfingers 7.12502
lthumb 12.6543 29.736
rfemur 4.22377 11.2592 27.181
rtibia 34.2552
rfoot -17.9756 -16.7796
rtoes -7.39119
lfemur 9.1709 1.33127 -12.7998
ltibia 26.7505
lfoot -17.1442 1.87284
ltoes -19.3738
3047
root 0.289957 17.3294 1.16907 166.362 0.679208 -175.257
lowerback 5.96398 -1.61044 0.776978
upperback 7.02287 -1.47612 1.59716
thorax 3.94113 -0.446016 1.27229
lowerneck -9.47847 -1.17369 -0.174884
upperneck -4.94344 -0.770329 7.58179
head 0.0912156 -0.0306465 2.40872
rclavicle 1.02747e-014 9.93923e-017
rhumerus -367.92 -16.8907 358.027
rradius 39.0214
rwrist -140.321
rhand -32.5593 9.18153
rfingers 7.12502
rthumb -5.78872 -380.719
lclavicle 1.02747e-014 9.93923e-017
lhumerus -25.1984 42.1625 -15.7103
lradius 22.4192
lwrist 191.866
lhand -13.487 0.137841
lfingers 7.12502
lthumb 12.6237 29.7364
rfemur 4.23768 11.2881 27.2108
rtibia 34.2538
rfoot -17.9599 -16.7992
rtoes -7.40346
lfemur 9.18234 1.36588 -12.7685
ltibia 26.7511
lfoot -17.1421 1.84667
ltoes -19.3775
3048
root 0.289478 17.3294 1.16891 166.362 0.690987 -175.255
lowerback 5.95267 -1.60877 0.7653
upperback 7.03235 -1.47363 1.60454
thorax 3.95797 -0.444986 1.28623
lowerneck -9.50007 -1.18401 -0.167926
upperneck -4.94056 -0.784987 7.57604
head 0.0962525 -0.0373438 2.40514
rclavicle 2.23136e-014 -2.06736e-014
rhumerus -367.919 -16.9151 358.054
rradius 39.0228
rwrist -140.376
rhand -32.5635 9.39925
rfingers 7.12502
rthumb -5.79282 -380.502
lclavicle 2.23136e-014 -2.06736e-014
lhumerus -25.1435 42.0276 -15.6417
lradius 22.4024
lwrist 191.981
lhand -13.4435 0.145046
lfingers 7.12502
lthumb 12.6657 29.741
rfemur 4.23738 11.2855 27.2108
rtibia 34.2538
rfoot -17.9739 -16.789
rtoes -7.49369
lfemur 9.18219 1.3629 -12.7691
ltibia 26.7503
lfoot -17.1421 1.86481
ltoes -19.3999
3049
root 0.288585 17.3293 1.16841 166.353 0.697696 -175.255
lowerback 5.94801 -1.61093 0.757206
upperback 7.03267 -1.47714 1.60248
thorax 3.96116 -0.447194 1.28862
lowerneck -9.49027 -1.18272 -0.157429
upperneck -4.93657 -0.784316 7.58458
head 0.0958227 -0.0372446 2.40609
rclavicle -3.22404e-015 -4.67144e-015
rhumerus -367.907 -16.9234 358.061
rradius 38.9967
rwrist -140.37
rhand -32.5836 9.59308
rfingers 7.12502
rthumb -5.81222 -380.307
lclavicle -3.22404e-015 -4.67144e-015
lhumerus -25.1841 42.201 -15.6913
lradius 22.4476
lwrist 191.753
lhand -13.4667 0.116016
lfingers 7.12502
lthumb 12.6433 29.7134
rfemur 4.24785 11.2719 27.2016
rtibia 34.2498
rfoot -17.9723 -16.7678
rtoes -7.49822
lfemur 9.19324 1.36038 -12.7702
ltibia 26.7547
lfoot -17.1477 1.85075
ltoes -19.3615
